<?xml version="1.0" standalone="no"?>
<!DOCTYPE svg PUBLIC "-//W3C//DTD SVG 20010904//EN"
 "http://www.w3.org/TR/2001/REC-SVG-20010904/DTD/svg10.dtd">
<svg version="1.0" xmlns="http://www.w3.org/2000/svg"
 width="600.000000pt" height="600.000000pt" viewBox="0 0 600.000000 600.000000"
 preserveAspectRatio="xMidYMid meet">
<metadata>
Created by potrace 1.11, written by Peter Selinger 2001-2013
</metadata>
<g transform="translate(0.000000,600.000000) scale(0.100000,-0.100000)"
fill="#000000" stroke="none">
<path d="M2922 5801 c-9 -5 26 -8 88 -8 56 0 96 3 90 7 -17 11 -163 12 -178 1z"/>
<path d="M2635 5669 c-27 -17 -53 -34 -57 -38 -4 -3 188 -6 427 -6 239 0 435
1 435 2 0 1 -27 18 -61 38 l-60 35 -317 0 -317 0 -50 -31z"/>
<path d="M2424 5532 c-21 -3 -144 -64 -144 -72 0 -4 1330 -5 1430 -1 20 1 13
8 -38 37 l-63 36 -583 1 c-320 1 -591 1 -602 -1z"/>
<path d="M2067 5341 c-97 -54 -165 -51 936 -53 559 -2 1017 0 1017 3 0 3 -27
21 -61 40 l-61 34 -894 0 -894 0 -43 -24z"/>
<path d="M1807 5181 c-1 -9 -1 -26 1 -38 l4 -21 1249 0 c687 0 1249 2 1249 3
0 2 -26 18 -57 37 l-58 33 -1192 1 c-1074 0 -1193 -1 -1196 -15z"/>
<path d="M1808 5000 c-3 -16 -2 -33 1 -38 7 -10 2791 -11 2785 -1 -2 4 -29 21
-59 38 l-55 31 -1334 0 -1334 0 -4 -30z"/>
<path d="M1310 4901 c-97 -67 -173 -181 -196 -293 -4 -18 -7 -426 -8 -907 -1
-950 -1 -947 55 -1057 52 -104 99 -141 384 -304 17 -9 308 -177 647 -373 340
-196 641 -364 670 -374 75 -25 225 -24 293 2 73 28 138 66 128 76 -14 13
-1345 779 -1354 779 -5 0 -9 5 -9 10 0 6 -4 10 -9 10 -6 0 -81 42 -168 92
-216 127 -286 199 -342 353 l-25 70 -2 973 c-1 535 -3 975 -5 977 -2 2 -29
-13 -59 -34z"/>
<path d="M1828 4859 c-18 -4 -23 -11 -21 -33 1 -16 5 -31 8 -34 3 -3 680 -6
1504 -6 l1499 -1 -19 26 c-10 14 -25 32 -33 39 -13 10 -306 13 -1465 14 -798
0 -1460 -1 -1473 -5z"/>
<path d="M1809 4680 c0 -8 -2 -25 -3 -37 l-3 -23 1544 0 c849 0 1543 4 1543 9
0 4 -5 21 -10 37 l-10 29 -1530 0 c-1353 0 -1530 -2 -1531 -15z"/>
<path d="M1814 4518 c-4 -5 -7 -23 -8 -39 l-2 -29 1547 0 c1465 0 1547 1 1551
18 2 9 2 26 -1 38 l-6 21 -1538 0 c-911 0 -1540 -4 -1543 -9z"/>
<path d="M1809 4350 c-1 -6 -1 -19 -1 -30 0 -11 0 -24 1 -28 1 -5 696 -8 1546
-8 l1545 0 0 38 0 38 -1545 0 c-1007 0 -1545 -4 -1546 -10z"/>
<path d="M1809 4188 c-5 -16 -4 -50 2 -60 7 -10 306 -13 1549 -13 l1540 0 0
37 0 38 -1545 0 c-850 0 -1545 -1 -1546 -2z"/>
<path d="M1814 4015 c-10 -7 -11 -19 -6 -39 l8 -29 1537 1 c845 1 1541 3 1546
6 5 3 6 20 2 38 l-7 31 -1533 1 c-1008 1 -1539 -2 -1547 -9z"/>
<path d="M1808 3829 c-2 -14 -2 -31 0 -37 3 -9 385 -12 1548 -12 l1544 0 0 38
0 37 -1544 0 -1544 0 -4 -26z"/>
<path d="M1808 3672 c-2 -9 -2 -27 0 -39 l4 -22 1543 0 c1446 0 1544 1 1547
17 2 9 2 27 0 39 l-4 21 -1543 1 c-1444 0 -1544 -1 -1547 -17z"/>
<path d="M1809 3513 c-4 -39 -4 -63 1 -64 3 -1 698 -2 1545 -3 1536 -1 1540
-1 1546 19 3 11 3 28 1 38 -4 16 -86 17 -1548 17 -849 0 -1544 -3 -1545 -7z"/>
<path d="M1837 3352 c-26 -3 -28 -6 -21 -35 3 -18 10 -34 14 -37 10 -6 3058
-5 3064 1 10 11 15 46 7 57 -7 12 -264 14 -1522 15 -833 1 -1527 1 -1542 -1z"/>
<path d="M1870 3177 c0 -5 8 -22 17 -38 l17 -29 1497 0 1497 0 4 30 c3 17 0
34 -6 38 -16 10 -3026 9 -3026 -1z"/>
<path d="M2005 3010 c-2 -3 17 -20 43 -37 l47 -31 1402 0 1403 0 0 38 0 37
-1445 0 c-795 0 -1447 -3 -1450 -7z"/>
<path d="M2285 2837 c11 -8 40 -25 65 -39 l45 -25 1250 1 1250 1 3 38 3 37
-1318 0 c-1106 0 -1314 -2 -1298 -13z"/>
<path d="M2560 2680 c0 -3 28 -21 62 -40 l63 -34 1071 0 1071 -1 22 38 22 37
-53 0 c-403 4 -2258 4 -2258 0z"/>
<path d="M2859 2511 c-6 -2 18 -19 52 -38 l63 -35 833 0 832 0 50 34 c28 18
51 35 51 38 0 6 -1864 7 -1881 1z"/>
<path d="M3150 2339 c0 -4 15 -14 33 -24 17 -9 43 -23 57 -31 21 -11 118 -14
563 -14 l538 0 60 33 c32 17 59 35 59 38 0 3 -295 5 -655 5 -360 0 -655 -3
-655 -7z"/>
<path d="M3445 2167 c97 -65 77 -62 350 -63 241 -1 252 0 295 22 107 54 118
52 -290 53 -317 1 -372 -1 -355 -12z"/>
<path d="M3759 1984 c44 -25 45 -25 79 -7 18 10 36 21 38 26 3 4 -32 7 -78 7
l-83 0 44 -26z"/>
<path d="M2047 1264 c-1 -1 -24 -5 -52 -8 -27 -4 -74 -18 -103 -31 -61 -28
-154 -112 -187 -170 -77 -134 -76 -312 4 -436 159 -249 499 -273 686 -49 105
125 127 307 55 455 -55 114 -182 211 -300 230 -42 7 -99 12 -103 9z m142 -69
c178 -59 283 -240 248 -429 -20 -111 -104 -217 -216 -269 -54 -26 -76 -30
-145 -30 -92 -1 -142 13 -206 56 -118 79 -183 207 -174 343 17 242 262 406
493 329z"/>
<path d="M3021 1240 c-61 -22 -63 -23 -128 -72 -58 -44 -115 -121 -138 -188
-22 -61 -26 -182 -8 -250 35 -136 154 -260 284 -296 49 -13 171 -20 209 -11
48 10 101 34 148 65 50 32 52 36 37 52 -16 17 -19 17 -60 -11 -67 -45 -121
-61 -210 -61 -104 0 -173 26 -248 92 -38 35 -67 72 -88 116 -90 183 -9 416
176 500 67 31 84 35 166 35 73 0 154 -25 209 -66 31 -23 35 -24 52 -8 17 16
16 18 -29 50 -98 70 -259 92 -372 53z"/>
<path d="M4585 1240 c-101 -50 -126 -185 -50 -269 32 -35 62 -53 160 -95 49
-22 108 -68 135 -106 64 -89 25 -237 -74 -284 -72 -33 -152 -26 -214 21 -32
24 -72 89 -72 117 0 12 -5 13 -22 7 -25 -9 -26 -37 -2 -81 95 -176 344 -175
436 2 29 55 32 166 5 216 -31 57 -96 111 -191 157 -102 49 -115 59 -140 96
-44 69 3 181 80 189 60 7 83 -1 122 -40 34 -35 41 -38 57 -27 16 13 15 16 -16
52 -58 66 -138 83 -214 45z"/>
<path d="M1104 838 l1 -412 170 -1 c94 -1 176 1 183 3 19 6 15 42 -5 43 -10 0
-82 1 -160 1 l-143 1 0 388 0 389 -24 0 -24 0 2 -412z"/>
<path d="M3677 1243 c-2 -5 -3 -143 -2 -308 2 -337 6 -359 73 -429 109 -114
287 -114 391 -1 73 79 73 82 75 433 l1 313 -24 -3 -24 -3 -1 -310 c-2 -345 -1
-340 -73 -410 -80 -77 -217 -76 -300 4 -67 64 -67 65 -70 396 -1 165 -2 306
-2 313 -1 13 -37 17 -44 5z"/>
<path d="M1102 263 c3 -71 24 -89 22 -20 0 20 1 37 2 37 2 0 17 -20 34 -45 17
-25 35 -43 41 -40 15 10 12 138 -3 132 -8 -2 -13 -19 -12 -40 1 -21 -2 -37 -5
-37 -4 0 -17 18 -31 40 -38 61 -51 53 -48 -27z"/>
<path d="M1281 265 c0 -36 4 -66 9 -66 6 -1 21 -1 35 -1 39 0 45 1 45 13 0 5
-8 9 -17 8 -36 -3 -50 1 -50 16 0 9 10 15 24 15 13 0 23 5 23 10 0 6 -9 10
-19 10 -19 0 -35 23 -24 34 4 3 17 6 30 6 13 0 23 5 23 10 0 6 -18 10 -39 10
l-39 0 -1 -65z"/>
<path d="M1429 323 c-2 -22 3 -129 7 -132 7 -7 13 3 18 34 2 17 5 32 5 35 1 2
12 -12 27 -33 31 -46 51 -40 23 8 l-21 35 22 30 c16 23 18 30 7 30 -8 0 -22
-11 -31 -25 -9 -14 -21 -25 -26 -25 -6 0 -10 11 -10 25 0 22 -19 37 -21 18z"/>
<path d="M1587 323 c-9 -15 -1 -128 9 -127 5 0 11 9 12 20 7 35 20 37 37 4 12
-23 20 -29 27 -22 8 8 7 16 -2 26 -7 10 -9 23 -4 33 20 46 4 73 -41 73 -18 0
-36 -3 -38 -7z m63 -32 c0 -10 -7 -22 -16 -25 -23 -9 -24 -8 -24 19 0 18 5 25
20 25 13 0 20 -7 20 -19z"/>
<path d="M1746 268 c1 -35 2 -66 3 -70 1 -5 19 -5 74 1 4 1 7 5 7 10 0 5 -13
8 -30 7 -23 -2 -30 2 -30 16 0 11 7 18 19 18 11 0 23 5 26 10 4 6 -5 10 -19
10 -19 0 -26 5 -26 20 0 15 7 20 25 20 14 0 25 5 25 10 0 6 -17 10 -38 10
l-39 0 3 -62z"/>
<path d="M1870 320 c0 -5 11 -10 25 -10 24 0 25 -3 25 -62 1 -52 3 -60 13 -47
7 9 12 37 11 63 -1 42 1 46 22 46 13 0 24 5 24 10 0 6 -27 10 -60 10 -33 0
-60 -4 -60 -10z"/>
<path d="M2042 263 c3 -71 24 -89 22 -20 0 20 2 37 6 37 3 0 14 -16 25 -36 10
-19 27 -40 37 -45 17 -9 18 -4 18 61 0 40 -4 70 -10 70 -10 0 -12 -11 -13 -57
0 -32 -8 -28 -37 17 -37 61 -51 53 -48 -27z"/>
<path d="M2222 265 c0 -36 4 -67 9 -70 11 -7 11 -5 13 73 2 41 -2 62 -9 62 -8
0 -12 -23 -13 -65z"/>
<path d="M2319 315 c0 -8 -1 -35 -1 -60 0 -63 1 -67 12 -60 6 3 10 25 11 48 0
36 2 40 12 23 26 -41 59 -76 68 -70 5 3 9 34 9 70 0 48 -3 64 -14 64 -10 0
-13 -11 -12 -40 1 -22 -1 -40 -5 -40 -4 0 -18 18 -30 40 -23 40 -48 53 -50 25z"/>
<path d="M2499 308 c-2 -13 -2 -43 1 -68 5 -44 6 -45 39 -45 20 0 36 6 39 14
3 10 -3 12 -27 9 -25 -4 -31 -1 -31 14 0 13 7 18 25 18 14 0 25 5 25 10 0 6
-10 10 -23 10 -16 0 -23 6 -24 20 -1 16 4 20 28 20 16 0 29 5 29 10 0 6 -17
10 -39 10 -32 0 -39 -4 -42 -22z"/>
<path d="M2765 318 c-2 -7 -3 -38 -2 -68 l2 -55 979 -2 c845 -2 983 0 1010 12
37 18 52 40 61 89 l7 36 -1026 0 c-813 0 -1027 -3 -1031 -12z"/>
</g>
</svg>
